<?xml version="1.0" standalone="no"?>
<!DOCTYPE svg PUBLIC "-//W3C//DTD SVG 20010904//EN"
 "http://www.w3.org/TR/2001/REC-SVG-20010904/DTD/svg10.dtd">
<svg version="1.0" xmlns="http://www.w3.org/2000/svg"
 width="163.000000pt" height="163.000000pt" viewBox="0 0 163.000000 163.000000"
 preserveAspectRatio="xMidYMid meet">
<metadata>
Created by potrace 1.11, written by Peter Selinger 2001-2013
</metadata>
<g transform="translate(0.000000,163.000000) scale(0.100000,-0.100000)"
fill="#000000" stroke="none">
<path d="M535 1299 c-117 -15 -185 -92 -185 -211 0 -31 -8 -45 -55 -92 -30
-30 -55 -62 -55 -70 0 -27 37 -18 60 14 12 17 30 35 41 40 16 9 21 5 35 -30
11 -27 22 -40 35 -40 23 0 23 7 4 54 -8 20 -11 36 -6 36 15 0 33 -28 41 -64 9
-39 5 -42 -52 -41 -41 0 -46 -6 -23 -25 9 -7 13 -21 9 -34 -2 -11 -6 -31 -7
-43 -2 -29 -9 -23 -58 48 -26 36 -49 59 -58 57 -9 -2 -20 -25 -29 -61 -8 -31
-17 -57 -21 -57 -3 0 -19 23 -34 50 -16 28 -23 50 -18 50 6 0 11 5 11 10 0 6
-34 10 -82 10 l-82 0 30 -29 c16 -16 56 -68 89 -115 36 -52 67 -85 78 -86 19
0 19 0 39 75 l14 50 49 -67 c61 -86 72 -81 105 42 35 130 51 133 74 17 14 -66
16 -92 7 -95 -25 -8 3 -22 46 -22 26 0 43 -3 40 -7 -4 -4 5 -20 20 -35 19 -19
22 -27 10 -23 -14 6 -17 2 -17 -24 0 -25 4 -31 23 -32 56 -2 80 -14 171 -91
13 -11 -106 -63 -177 -78 -125 -25 -204 16 -220 116 -7 44 13 124 29 117 7 -2
17 4 23 15 12 23 -2 32 -49 32 -31 0 -31 -2 -44 -122 -9 -80 37 -168 102 -195
73 -30 182 -15 307 43 l78 36 76 -36 c148 -68 251 -75 331 -22 61 40 80 87 77
190 l-4 86 33 22 c54 37 81 99 49 112 -8 3 -15 2 -15 -3 0 -18 -43 -63 -50
-52 -5 8 -14 7 -34 -3 -35 -18 -78 -5 -100 29 -27 41 -21 45 74 45 50 0 90 3
90 6 0 23 -41 66 -79 83 -33 15 -40 20 -23 21 18 0 24 9 34 45 9 35 16 44 29
40 9 -3 22 1 29 10 10 13 10 19 -4 33 -9 10 -16 32 -16 49 0 45 -27 115 -60
155 -58 71 -177 86 -300 39 -68 -26 -90 -40 -72 -48 6 -2 12 -9 12 -15 0 -5
-12 0 -26 11 -32 25 -52 26 -82 5 -35 -24 -45 -59 -27 -93 35 -68 135 -47 135
29 0 26 7 33 58 59 135 68 240 45 296 -66 9 -18 16 -43 16 -57 l0 -26 -52 20
c-68 25 -167 47 -244 55 -55 5 -62 4 -70 -15 -8 -18 6 -36 102 -134 l112 -114
-20 -20 c-22 -21 -28 -68 -15 -114 6 -23 4 -28 -10 -28 -32 0 -43 15 -53 70
-11 56 -3 74 27 63 7 -3 13 2 13 11 0 9 -3 16 -7 17 -21 2 -45 8 -50 12 -5 6
-11 34 -12 60 -1 21 -31 23 -31 1 0 -9 -16 -32 -35 -51 -32 -32 -48 -62 -25
-48 12 8 26 -27 36 -91 13 -90 99 -138 145 -80 l19 24 42 -21 c23 -12 59 -21
81 -21 39 0 39 0 13 -13 -22 -12 -25 -17 -15 -34 8 -16 13 -18 25 -9 16 14 24
1 28 -52 8 -106 -53 -183 -152 -192 -45 -4 -155 25 -211 57 l-42 24 48 40 c61
51 84 63 121 63 25 0 29 3 25 20 -3 11 -9 20 -14 20 -5 0 -2 11 7 25 21 33 36
32 24 -1 -15 -38 -12 -53 15 -79 47 -48 125 -16 125 52 0 46 -84 98 -104 64
-3 -5 -24 -7 -46 -4 -36 5 -44 2 -77 -31 -42 -40 -45 -41 -228 -37 -62 1 -68
3 -110 42 -25 23 -45 48 -45 55 0 8 -4 14 -9 14 -12 0 -21 23 -36 95 -14 63
-10 75 27 75 31 0 54 -34 68 -99 11 -53 11 -64 -1 -71 -27 -18 3 -23 123 -22
175 1 167 0 144 17 -13 10 -25 44 -38 107 -11 51 -23 97 -28 102 -5 5 -23 2
-43 -8 -19 -9 -42 -16 -51 -16 -18 0 -21 -16 -5 -26 15 -9 35 -61 44 -111 6
-39 5 -43 -14 -43 -21 0 -27 14 -50 120 -14 62 -48 90 -109 90 -26 0 -54 -4
-62 -10 -15 -9 -30 3 -30 25 0 6 4 4 8 -2 6 -9 19 1 45 32 21 25 68 71 106
103 61 53 66 61 57 81 -10 22 -14 23 -81 18 -67 -6 -226 -46 -267 -68 -27 -14
-31 -7 -23 39 22 131 157 178 310 108 49 -22 59 -24 71 -11 13 12 12 16 -8 29
-63 41 -162 64 -233 55z m86 -276 c-84 -86 -76 -86 -95 0 -5 22 -11 27 -24 22
-43 -18 -102 -33 -102 -26 0 9 139 58 200 70 103 20 104 18 21 -66z m494 53
c28 -7 74 -23 103 -36 50 -21 53 -25 47 -52 -15 -66 -33 -86 -79 -90 -24 -1
-42 1 -39 5 6 9 -43 70 -116 145 l-52 54 43 -6 c24 -3 66 -12 93 -20z m122
-218 c26 -34 21 -43 -23 -44 -38 0 -44 3 -44 21 0 12 3 25 7 28 11 12 50 8 60
-5z m-372 -328 l30 0 -25 -20 c-33 -25 -43 -25 -77 4 l-28 24 35 -3 c19 -2 49
-4 65 -5z"/>
<path d="M787 998 c-26 -14 -22 -57 7 -68 36 -13 66 -2 66 25 0 35 -43 61 -73
43z"/>
<path d="M1361 996 c-11 -13 -11 -22 3 -51 14 -28 15 -39 5 -57 -12 -23 -11
-23 15 1 31 29 34 69 8 101 -16 20 -19 21 -31 6z"/>
<path d="M1410 888 c-18 -10 -26 -23 -28 -50 -4 -44 22 -72 81 -90 43 -13 56
-31 38 -52 -15 -17 -49 -9 -64 15 -15 25 -27 24 -27 -1 0 -59 171 -64 198 -5
19 41 -6 79 -69 101 -57 21 -77 45 -53 64 11 10 20 10 39 2 14 -7 25 -16 25
-22 0 -5 7 -10 16 -10 11 0 14 6 8 23 -3 12 -8 24 -11 27 -10 11 -130 10 -153
-2z"/>
<path d="M473 648 c-31 -15 -44 -57 -28 -95 30 -72 135 -49 135 30 0 38 -7 50
-37 66 -26 13 -41 13 -70 -1z"/>
<path d="M1376 514 c-19 -19 -20 -33 -1 -58 20 -26 63 -14 71 21 11 43 -38 69
-70 37z m52 -6 c15 -15 16 -38 2 -38 -6 0 -10 8 -8 17 2 10 -4 19 -14 21 -14
3 -18 -3 -18 -25 0 -19 3 -24 9 -15 7 11 9 11 14 -2 9 -22 -19 -21 -32 1 -19
35 19 69 47 41z"/>
</g>
</svg>
